<svg fill="currentColor" xmlns="http://www.w3.org/2000/svg" width="22" height="17.7" viewBox="0 0 22 17.7"><path d="M11.021 17.314H11a15.08 15.08 0 0 1-6.333-1.379.502.502 0 0 1-.292-.462c.029-1.771.745-3.423 2.017-4.653s2.931-1.903 4.717-1.864a6.599 6.599 0 0 1 6.517 6.518.499.499 0 0 1-.292.462 15.046 15.046 0 0 1-6.313 1.379Zm-5.632-2.151A14.075 14.075 0 0 0 11 16.314h.02a14.05 14.05 0 0 0 5.591-1.151 5.6 5.6 0 0 0-5.519-5.207 5.555 5.555 0 0 0-4.005 1.583 5.584 5.584 0 0 0-1.698 3.624ZM11 7.512c-1.965 0-3.563-1.598-3.563-3.562S9.035.386 11 .386s3.563 1.599 3.563 3.563S12.965 7.511 11 7.511Zm0-6.126c-1.414 0-2.563 1.15-2.563 2.563S9.587 6.511 11 6.511s2.563-1.149 2.563-2.562S12.413 1.386 11 1.386Z"/></svg>