<svg fill="currentColor" xmlns="http://www.w3.org/2000/svg" width="22" height="17.7" viewBox="0 0 22 17.7"><path d="M8.629 16.544a.503.503 0 0 1-.5-.5V8.801a.9.9 0 0 0-.265-.641L4.468 4.765a1.923 1.923 0 0 1-.558-1.349v-.652c0-.587.417-1.082.991-1.178a30.653 30.653 0 0 1 5.117-.431h.018c1.726 0 3.454.145 5.135.431.573.096.989.591.989 1.178v.652c0 .503-.204.994-.559 1.349L12.206 8.16a.9.9 0 0 0-.265.641v4.968c0 .727-.404 1.38-1.054 1.705l-2.035 1.018a.505.505 0 0 1-.224.053Zm1.389-14.388c-1.656 0-3.321.141-4.951.417a.191.191 0 0 0-.157.191v.652c0 .239.097.473.265.642L8.57 7.453c.36.359.559.838.559 1.348v6.435l1.312-.656a.9.9 0 0 0 .501-.811V8.801c0-.509.198-.988.558-1.348l3.395-3.395a.913.913 0 0 0 .266-.642v-.652a.189.189 0 0 0-.156-.191 29.799 29.799 0 0 0-4.969-.417c-.002-.005-.012 0-.017 0Z"/></svg>