<svg fill="currentColor" xmlns="http://www.w3.org/2000/svg" width="22" height="17.7" viewBox="0 0 22 17.7"><path d="M7.557 16.726c-.15 0-.3-.022-.445-.068a1.424 1.424 0 0 1-.872-.767 19.176 19.176 0 0 1-1.244-3.594A4.52 4.52 0 0 1 1.13 7.83a4.52 4.52 0 0 1 4.514-4.514h.669c.6 0 1.209-.026 1.81-.077l.023-.002a20.706 20.706 0 0 0 7.722-2.225.54.54 0 0 1 .17-.037.484.484 0 0 1 .39.165.51.51 0 0 1 .11.197c.494 1.598.805 3.251.922 4.916v.002a22.418 22.418 0 0 1 0 3.153 21.907 21.907 0 0 1-.94 4.967.494.494 0 0 1-.268.272.529.529 0 0 1-.214.039.535.535 0 0 1-.17-.037l-.046-.022a20.692 20.692 0 0 0-6.958-2.129c.182.579.399 1.149.648 1.704.332.738.065 1.592-.619 1.986l-.585.338a1.49 1.49 0 0 1-.75.201Zm-1.518-4.383a18.15 18.15 0 0 0 1.11 3.128.434.434 0 0 0 .266.233c.128.04.271.024.393-.045l.585-.339c.235-.136.325-.447.207-.71a16.713 16.713 0 0 1-.812-2.216 21.42 21.42 0 0 0-1.475-.052h-.275Zm2.537-.885c2.5.256 4.907.933 7.169 2.015.377-1.351.618-2.737.717-4.133v-.003c.071-1 .071-2.014 0-3.015V6.32a20.89 20.89 0 0 0-.717-4.134 21.666 21.666 0 0 1-7.169 2.015 15.657 15.657 0 0 0 0 7.257ZM5.645 4.316c-1.938 0-3.514 1.576-3.514 3.514s1.576 3.513 3.514 3.513h.669c.404 0 .812.012 1.218.033a16.65 16.65 0 0 1 0-7.093 23.67 23.67 0 0 1-1.218.033h-.669ZM20.369 8.33h-1.647a.5.5 0 0 1 0-1h1.647a.5.5 0 0 1 0 1Zm-1.536-2.371a.5.5 0 0 1-.251-.933l1.426-.823a.5.5 0 0 1 .5.866l-1.426.823a.494.494 0 0 1-.25.067Zm1.425 5.564a.494.494 0 0 1-.25-.067l-1.426-.823a.5.5 0 1 1 .5-.866l1.426.823a.5.5 0 0 1-.251.933Z"/></svg>