<svg fill="currentColor" xmlns="http://www.w3.org/2000/svg" width="22" height="17.7" viewBox="0 0 22 17.7"><path d="M11 16.704a.409.409 0 0 1-.343-.184l-2.278-3.418a.537.537 0 0 0-.402-.231 40.16 40.16 0 0 1-2.861-.316c-1.501-.221-2.59-1.515-2.59-3.076V4.501c0-1.562 1.089-2.856 2.591-3.077a40.707 40.707 0 0 1 11.768 0c1.502.221 2.591 1.515 2.591 3.077v4.977c0 1.562-1.089 2.856-2.591 3.077-.943.14-1.906.246-2.86.316a.538.538 0 0 0-.403.233l-2.277 3.416a.411.411 0 0 1-.343.184Zm0-14.885a39.64 39.64 0 0 0-5.764.421c-1.093.16-1.887 1.111-1.887 2.261v4.978c0 1.148.794 2.1 1.886 2.26.921.136 1.863.24 2.802.311.414.03.798.253 1.027.596L11 15.549l1.936-2.902c.236-.351.61-.567 1.028-.597a38.59 38.59 0 0 0 2.8-.311c1.093-.16 1.887-1.111 1.887-2.261V4.501c0-1.149-.794-2.101-1.886-2.261-1.9-.279-3.84-.421-5.765-.421Zm0 6.823H7.279a.412.412 0 0 1 0-.824H11a.412.412 0 0 1 0 .824Zm3.722-2.481H7.28a.412.412 0 0 1 0-.824h7.442a.412.412 0 0 1 0 .824Z"/></svg>