<svg fill="currentColor" xmlns="http://www.w3.org/2000/svg" width="22" height="17.7" viewBox="0 0 22 17.7"><path d="M9.594 16.456a.416.416 0 0 1-.413-.413V8.8a.982.982 0 0 0-.291-.702L5.495 4.703a1.832 1.832 0 0 1-.533-1.287v-.652a1.1 1.1 0 0 1 .918-1.092 30.688 30.688 0 0 1 5.103-.429H11c1.722 0 3.445.145 5.121.43a1.1 1.1 0 0 1 .917 1.091v.652c0 .479-.194.948-.533 1.287L13.11 8.098a.986.986 0 0 0-.291.702v4.968a1.81 1.81 0 0 1-1.005 1.627l-2.035 1.018a.415.415 0 0 1-.185.043Zm1.389-14.388a29.81 29.81 0 0 0-4.966.418.278.278 0 0 0-.229.278v.652c0 .262.106.519.291.703l3.395 3.395c.344.344.533.801.533 1.286v6.576l1.438-.72a.987.987 0 0 0 .549-.889V8.799c0-.485.189-.942.533-1.286l3.395-3.395a.999.999 0 0 0 .291-.703v-.652a.276.276 0 0 0-.229-.277A29.767 29.767 0 0 0 11 2.067h-.017Z"/></svg>