<svg fill="currentColor" xmlns="http://www.w3.org/2000/svg" width="22" height="17.7" viewBox="0 0 22 17.7"><path d="M11 17.059c-3.931 0-7.01-1.63-7.01-3.711V4.351C3.99 2.27 7.069.64 11 .64s7.01 1.63 7.01 3.711v8.997c0 2.081-3.079 3.711-7.01 3.711Zm-6.185-4.936v1.226c0 1.564 2.833 2.887 6.185 2.887s6.185-1.322 6.185-2.887v-1.226c-1.17 1.163-3.476 1.938-6.185 1.938s-5.015-.774-6.185-1.938Zm0-1.773c0 1.564 2.833 2.887 6.185 2.887s6.185-1.322 6.185-2.887V9.124c-1.17 1.163-3.476 1.938-6.185 1.938s-5.015-.774-6.185-1.938v1.226Zm0-3c0 1.564 2.833 2.887 6.185 2.887s6.185-1.322 6.185-2.887V6.124C16.015 7.287 13.709 8.062 11 8.062s-5.015-.774-6.185-1.938V7.35Zm0-2.999c0 1.564 2.833 2.887 6.185 2.887s6.185-1.322 6.185-2.887S14.352 1.464 11 1.464 4.815 2.786 4.815 4.351Z"/></svg>