<svg fill="currentColor" xmlns="http://www.w3.org/2000/svg" width="22" height="17.7" viewBox="0 0 22 17.7"><path d="M5.272 17.01a2.417 2.417 0 0 1-1.541-.553 2.422 2.422 0 0 1-.879-1.645 2.42 2.42 0 0 1 .879-2.124l5.08-4.183-2.82-2.821h-.949a.412.412 0 0 1-.354-.2L2.901 2.505a.412.412 0 0 1 .062-.504L4.154.81a.413.413 0 0 1 .504-.062l2.979 1.787c.124.074.2.209.2.354v.948l2.979 2.979c.394-.491.43-1.23.381-1.799a3.996 3.996 0 0 1 .339-1.982 3.993 3.993 0 0 1 5.275-1.992.414.414 0 0 1 .122.668l-2.43 2.43c.199.56.645 1.006 1.204 1.204l2.43-2.431a.414.414 0 0 1 .668.122c.28.62.397 1.306.339 1.982A3.994 3.994 0 0 1 14.83 8.65a4.655 4.655 0 0 0-.481-.015l4.091 4.09a2.51 2.51 0 0 1 .005 3.51 2.505 2.505 0 0 1-1.769.767c-.665-.024-1.31-.24-1.793-.709l-4.314-4.314-3.409 4.14a2.418 2.418 0 0 1-1.888.892Zm4.41-8.153-5.427 4.47a1.603 1.603 0 0 0-.582 1.406 1.612 1.612 0 0 0 2.85.863l3.695-4.487.006-.008 1.98-2.403c.28-.339.659-.585 1.127-.73a.365.365 0 0 1 .064-.02c.434-.125.938-.167 1.506-.118a3.175 3.175 0 0 0 3.422-2.88 3.177 3.177 0 0 0-.07-.982l-2.134 2.135a.419.419 0 0 1-.384.11 2.818 2.818 0 0 1-2.097-2.097.415.415 0 0 1 .11-.385l2.134-2.134a3.163 3.163 0 0 0-3.863 3.351c.103 1.213-.197 2.146-.867 2.697l-.08.066-.025.02-1.34 1.104-.008.008-.018.015Zm1.414 2.482 4.366 4.366c.32.311.752.482 1.201.473a1.684 1.684 0 0 0 1.19-.517c.64-.66.64-1.695 0-2.356l-4.478-4.477a1.412 1.412 0 0 0-.535.394l-1.745 2.117Zm-5.82-6.478h.886c.109 0 .214.043.292.12l2.997 2.997.747-.614-3.063-3.062a.413.413 0 0 1-.121-.292v-.886L4.512 1.623l-.736.735 1.501 2.503Zm.065 10.065c-.228 0-.419-.185-.419-.412s.185-.418.413-.418h.007c.228 0 .413.185.413.412s-.185.418-.413.418Zm10.724-.602a.415.415 0 0 1-.292-.12l-2.085-2.086a.413.413 0 0 1 .583-.584l2.085 2.086a.413.413 0 0 1-.292.704Z"/></svg>