<svg fill="currentColor" xmlns="http://www.w3.org/2000/svg" width="22" height="17.7" viewBox="0 0 22 17.7"><path d="M16.212 17.098a1.147 1.147 0 0 1 0-2.292 1.147 1.147 0 0 1 0 2.292Zm0-1.291a.146.146 0 0 0-.146.146c0 .16.291.16.291 0a.146.146 0 0 0-.146-.146ZM5.236 17.098a1.147 1.147 0 0 1 0-2.292 1.147 1.147 0 0 1 0 2.292Zm0-1.291a.146.146 0 0 0-.146.146c0 .161.292.159.292 0a.146.146 0 0 0-.146-.146Zm12.913-1.938H4.59a.5.5 0 0 1-.5-.5 3.088 3.088 0 0 1 2.449-3.017L4.631 3.197l-.006-.021-.327-1.227a.47.47 0 0 0-.453-.348H2.652a.5.5 0 0 1 0-1h1.193c.663 0 1.246.448 1.418 1.089l.229.856a52.53 52.53 0 0 1 13.977 1.609.499.499 0 0 1 .35.643 51.905 51.905 0 0 1-2.542 6.205.5.5 0 0 1-.45.281H7.162a2.087 2.087 0 0 0-2.012 1.582h12.998a.5.5 0 0 1 0 1ZM7.557 10.287h8.959a51.102 51.102 0 0 0 2.181-5.292A50.902 50.902 0 0 0 5.758 3.544l1.798 6.743Z"/></svg>