<svg fill="currentColor" xmlns="http://www.w3.org/2000/svg" width="22" height="17.7" viewBox="0 0 22 17.7"><path d="M13.014 16.559a2.2 2.2 0 0 1-1.55-.658L3.954 8.39a2.277 2.277 0 0 1-.663-1.601V3.404A2.267 2.267 0 0 1 5.555 1.14H8.94c.606 0 1.175.235 1.602.663l7.509 7.51c.737.738.871 1.837.324 2.672a14.607 14.607 0 0 1-4.239 4.238 2.032 2.032 0 0 1-1.122.335ZM5.554 2.141c-.697 0-1.264.566-1.264 1.264V6.79c0 .333.135.659.37.893l7.511 7.512c.399.398.981.477 1.417.194a13.607 13.607 0 0 0 3.95-3.951c.285-.435.205-1.017-.194-1.416l-7.51-7.51a1.274 1.274 0 0 0-.895-.37H5.554Z"/><path d="M6.149 4.498c-.276 0-.506-.224-.506-.5s.224-.506.5-.506h.006c.276 0 .5.224.5.5s-.224.506-.5.506Z"/></svg>