<svg fill="currentColor" xmlns="http://www.w3.org/2000/svg" width="22" height="17.7" viewBox="0 0 22 17.7"><path d="M5.272 17.097c-.582 0-1.14-.198-1.596-.572a2.51 2.51 0 0 1-.911-1.704 2.512 2.512 0 0 1 .911-2.2l5.005-4.122-2.727-2.727h-.912a.5.5 0 0 1-.429-.243L2.826 2.55a.5.5 0 0 1 .075-.61L4.092.749a.5.5 0 0 1 .611-.075l2.979 1.787c.15.09.243.253.243.429v.912l2.881 2.882c.321-.468.349-1.138.305-1.659-.06-.69.06-1.392.346-2.024A4.08 4.08 0 0 1 16.849.964a.5.5 0 0 1 .148.809l-2.391 2.391c.192.493.587.889 1.08 1.08l2.391-2.391a.51.51 0 0 1 .443-.139c.162.03.298.137.366.286a4.078 4.078 0 0 1-1.089 4.795 4.032 4.032 0 0 1-2.973.942 6.097 6.097 0 0 0-.262-.015l3.941 3.941c.99 1.023.99 2.616.006 3.632-.484.5-1.134.782-1.831.794a2.612 2.612 0 0 1-1.855-.733l-4.248-4.248-3.348 4.065a2.505 2.505 0 0 1-1.956.923Zm4.465-8.17-5.426 4.468a1.513 1.513 0 0 0-.55 1.329c.04.405.235.771.55 1.028a1.52 1.52 0 0 0 2.145-.212l3.694-4.486.007-.01 1.98-2.402c.29-.352.682-.606 1.166-.758a.36.36 0 0 1 .071-.021c.444-.128.961-.167 1.534-.12a3.059 3.059 0 0 0 2.245-.712 3.053 3.053 0 0 0 1.083-2.089c.023-.267.01-.535-.036-.797l-2.019 2.019a.498.498 0 0 1-.466.134 2.905 2.905 0 0 1-2.162-2.162.5.5 0 0 1 .134-.466l2.02-2.02a3.073 3.073 0 0 0-3.598 3.291c.105 1.243-.206 2.202-.898 2.772l-.079.066c-.01.008-.021.017-.032.023L9.771 8.897l-.009.009-.024.021Zm1.478 2.407 4.31 4.311c.302.293.725.454 1.138.446.429-.007.83-.181 1.128-.489a1.601 1.601 0 0 0 0-2.235l-4.433-4.433a1.293 1.293 0 0 0-.449.345l-1.694 2.056ZM5.326 4.773h.836c.133 0 .26.053.354.146l2.941 2.94.61-.503-2.994-2.994a.5.5 0 0 1-.146-.354v-.836l-2.401-1.44-.64.639 1.441 2.401Zm.015 10.241c-.276 0-.506-.224-.506-.5s.224-.506.5-.506h.006c.276 0 .5.224.5.5s-.224.506-.5.506Zm10.724-.601a.502.502 0 0 1-.354-.146l-2.085-2.086a.5.5 0 0 1 .707-.707l2.085 2.086a.5.5 0 0 1-.354.853Z"/></svg>