<svg fill="white" xmlns="http://www.w3.org/2000/svg" width="22" height="17.7" viewBox="0 0 22 17.7"><path d="M11 17.147c-3.979 0-7.097-1.669-7.097-3.799V4.352C3.903 2.222 7.021.553 11 .553s7.098 1.669 7.098 3.799v8.996c0 2.13-3.118 3.799-7.098 3.799Zm-6.097-4.825v1.026c0 1.352 2.45 2.799 6.097 2.799s6.098-1.447 6.098-2.799v-1.026c-1.229 1.104-3.476 1.827-6.098 1.827s-4.869-.724-6.097-1.827Zm0-1.972c0 1.352 2.45 2.799 6.097 2.799s6.098-1.447 6.098-2.799V9.323C15.869 10.427 13.622 11.15 11 11.15s-4.869-.724-6.097-1.827v1.027Zm0-2.999c0 1.352 2.45 2.799 6.097 2.799s6.098-1.447 6.098-2.799V6.324C15.869 7.428 13.622 8.151 11 8.151s-4.869-.724-6.097-1.827v1.027Zm0-2.999c0 1.352 2.45 2.799 6.097 2.799s6.098-1.447 6.098-2.799S14.648 1.553 11 1.553 4.903 3 4.903 4.352Z"/></svg>