<svg fill="white" xmlns="http://www.w3.org/2000/svg" width="22" height="17.7" viewBox="0 0 22 17.7"><path d="M11 17.231a.482.482 0 0 1-.125-.016A10.634 10.634 0 0 1 2.896 6.911c0-1.131.178-2.249.53-3.323a.5.5 0 0 1 .475-.344h.145A9.545 9.545 0 0 0 10.654.605a.498.498 0 0 1 .688 0 9.593 9.593 0 0 0 6.626 2.638h.128a.5.5 0 0 1 .475.344c.352 1.071.53 2.189.53 3.325 0 4.857-3.281 9.094-7.979 10.303a.482.482 0 0 1-.125.016ZM4.272 4.244a9.617 9.617 0 0 0-.375 2.668A9.633 9.633 0 0 0 11 16.214a9.63 9.63 0 0 0 7.104-9.301c0-.909-.126-1.806-.375-2.672a10.595 10.595 0 0 1-6.728-2.596 10.53 10.53 0 0 1-6.729 2.599Zm6.094 7.604a.507.507 0 0 1-.354-.146L8.111 9.801a.5.5 0 0 1 .707-.707l1.483 1.484 2.825-3.956a.5.5 0 1 1 .813.582l-3.168 4.436a.5.5 0 0 1-.366.207l-.041.002Z"/></svg>