<svg fill="white" xmlns="http://www.w3.org/2000/svg" width="22" height="17.7" viewBox="0 0 22 17.7"><path d="M17.333 17.003H4.667a2.526 2.526 0 0 1-2.524-2.523V8.85c0-.968.555-1.844 1.408-2.264v-.551c0-.968.554-1.844 1.407-2.265v-.551A2.525 2.525 0 0 1 7.482.697h7.037a2.526 2.526 0 0 1 2.524 2.522v.551a2.53 2.53 0 0 1 1.408 2.265v.551a2.527 2.527 0 0 1 1.407 2.264v5.63a2.526 2.526 0 0 1-2.524 2.523ZM4.092 7.25a1.703 1.703 0 0 0-1.125 1.6v5.63a1.7 1.7 0 0 0 1.699 1.699h12.667c.937 0 1.699-.763 1.699-1.699V8.85c0-.716-.451-1.357-1.124-1.6l-.015-.005a1.729 1.729 0 0 0-.56-.095H4.667c-.19 0-.378.032-.559.095l-.015.005Zm.575-.924h12.667c.098 0 .195.005.292.017v-.308c0-.717-.451-1.357-1.124-1.6l-.017-.006a1.69 1.69 0 0 0-.558-.094H6.074c-.192 0-.38.032-.558.094l-.017.006a1.702 1.702 0 0 0-1.124 1.6v.308c.096-.012.193-.017.291-.017Zm2.814-4.805a1.7 1.7 0 0 0-1.699 1.698v.309c.096-.012.193-.017.292-.017h9.852c.098 0 .195.005.291.017v-.309a1.7 1.7 0 0 0-1.699-1.698H7.481Z"/></svg>