<svg fill="white" xmlns="http://www.w3.org/2000/svg" width="22" height="17.7" viewBox="0 0 22 17.7"><path d="M8.07 16.588a1.88 1.88 0 0 1-1.832-1.466H2.942a.412.412 0 0 1 0-.824h3.296c.188-.838.938-1.465 1.832-1.465s1.644.627 1.832 1.465h9.155a.412.412 0 0 1 0 .824H9.902a1.88 1.88 0 0 1-1.832 1.466ZM7.018 14.71c0 .581.473 1.054 1.053 1.054s1.053-.473 1.053-1.054-.473-1.053-1.053-1.053-1.053.473-1.053 1.053Zm6.913-3.983a1.88 1.88 0 0 1-1.833-1.466H2.942a.412.412 0 0 1 0-.824h9.155a1.88 1.88 0 0 1 3.665 0h3.295a.412.412 0 0 1 0 .824h-3.295a1.88 1.88 0 0 1-1.832 1.466ZM12.877 8.85a1.055 1.055 0 1 0 1.054-1.053c-.58 0-1.054.473-1.054 1.053ZM8.07 4.867a1.88 1.88 0 0 1-1.832-1.465H2.942a.412.412 0 0 1 0-.824h3.296c.188-.838.938-1.466 1.832-1.466s1.644.628 1.832 1.466h9.155a.412.412 0 0 1 0 .824H9.902A1.88 1.88 0 0 1 8.07 4.867ZM7.018 2.99c0 .58.473 1.053 1.053 1.053S9.124 3.57 9.124 2.99s-.473-1.054-1.053-1.054-1.053.473-1.053 1.054Z"/></svg>