<svg fill="white" xmlns="http://www.w3.org/2000/svg" width="22" height="17.7" viewBox="0 0 22 17.7"><path d="M14.241 17.324h-6.48a2.283 2.283 0 0 1-2.266-2.097L4.646 4.191c-.133.021-.265.044-.397.066a.412.412 0 1 1-.141-.813c.283-.049.565-.096.85-.138h.007a39.88 39.88 0 0 1 2.522-.3v-.378c0-1.215.935-2.194 2.128-2.231a44.14 44.14 0 0 1 2.771 0c1.192.037 2.127 1.017 2.127 2.231v.378c.845.073 1.691.174 2.523.3h.002c.286.044.57.09.854.14a.412.412 0 0 1 .336.477.419.419 0 0 1-.477.336l-.397-.067-.849 11.035a2.283 2.283 0 0 1-2.265 2.098ZM7.762 16.5h6.478c.752 0 1.385-.587 1.443-1.337l.854-11.096a39.894 39.894 0 0 0-2.464-.27h-.008a40.205 40.205 0 0 0-6.13 0h-.008c-.821.063-1.648.154-2.464.27l.854 11.097A1.455 1.455 0 0 0 7.76 16.5h.002ZM11 1.2c-.454 0-.908.007-1.358.021-.746.023-1.33.642-1.33 1.407v.314a41.6 41.6 0 0 1 5.378 0v-.314c0-.766-.584-1.384-1.329-1.407a40.951 40.951 0 0 0-1.36-.021Zm1.98 13.024h-.016a.412.412 0 0 1-.396-.428l.286-7.442c.009-.228.189-.417.428-.396.228.009.405.2.396.428l-.286 7.442a.411.411 0 0 1-.412.396Zm-3.96 0a.412.412 0 0 1-.412-.396l-.286-7.442a.412.412 0 0 1 .396-.428c.218-.023.419.169.428.396l.286 7.442a.412.412 0 0 1-.396.428H9.02Z"/></svg>