<svg fill="white" xmlns="http://www.w3.org/2000/svg" width="22" height="17.7" viewBox="0 0 22 17.7"><path d="M7.557 16.638c-.142 0-.283-.021-.419-.064a1.334 1.334 0 0 1-.817-.721 18.964 18.964 0 0 1-1.252-3.636 4.432 4.432 0 0 1-3.85-4.388 4.431 4.431 0 0 1 4.426-4.426h.669c.604 0 1.216-.026 1.819-.078.006 0 .012 0 .019-.002A20.774 20.774 0 0 0 15.9 1.092a.4.4 0 0 1 .143-.031.4.4 0 0 1 .32.135.425.425 0 0 1 .077.124l.014.038c.492 1.59.802 3.238.919 4.898v.002a22.234 22.234 0 0 1 0 3.14V9.4a21.818 21.818 0 0 1-.933 4.936.415.415 0 0 1-.22.226.54.54 0 0 1-.181.033.416.416 0 0 1-.178-.049 20.762 20.762 0 0 0-7.123-2.154c.192.628.424 1.245.692 1.843a1.46 1.46 0 0 1-.583 1.874l-.585.339a1.415 1.415 0 0 1-.706.189Zm-1.631-4.383a18.177 18.177 0 0 0 1.144 3.253.515.515 0 0 0 .318.279c.152.048.321.03.462-.053l.586-.339c.273-.157.38-.518.243-.821-.329-.73-.605-1.49-.824-2.263a21.494 21.494 0 0 0-1.542-.057h-.387Zm2.58-.716c2.547.253 4.997.944 7.296 2.058.395-1.386.646-2.813.748-4.252v-.002a21.223 21.223 0 0 0 0-3.026v-.002a21.016 21.016 0 0 0-.748-4.252 21.577 21.577 0 0 1-7.296 2.058 15.743 15.743 0 0 0 0 7.419ZM5.644 4.228c-1.985 0-3.601 1.616-3.601 3.602s1.615 3.601 3.601 3.601h.669c.441 0 .886.013 1.329.04a16.64 16.64 0 0 1-.001-7.283c-.443.027-.888.04-1.329.04h-.669Zm14.725 4.014h-1.646a.413.413 0 1 1 0-.824h1.646a.413.413 0 1 1 0 .824Zm-1.536-2.371a.411.411 0 0 1-.207-.769l1.426-.823a.413.413 0 0 1 .412.714l-1.426.823a.416.416 0 0 1-.206.055Zm1.425 5.564a.416.416 0 0 1-.206-.055l-1.426-.823a.412.412 0 0 1 .412-.714l1.426.823a.412.412 0 0 1-.207.769Z"/></svg>