<svg fill="white" xmlns="http://www.w3.org/2000/svg" width="22" height="17.7" viewBox="0 0 22 17.7"><path d="M15.519 17.01a.413.413 0 0 1-.392-.282l-.336-1.01H7.207l-.336 1.01a.413.413 0 0 1-.783-.261l.428-1.282.006-.018.678-2.031H5.835a2.352 2.352 0 0 1-2.349-2.349V1.102c0-.228.185-.412.412-.412h14.204c.228 0 .412.185.412.412v9.685a2.352 2.352 0 0 1-2.35 2.349H14.8l.677 2.031a.439.439 0 0 1 .006.019l.428 1.281a.413.413 0 0 1-.392.543Zm-8.036-2.116h7.033l-.586-1.759H8.069l-.586 1.759Zm6.755-2.583h1.927c.841 0 1.525-.684 1.525-1.524V1.514H4.31v9.272c0 .841.684 1.524 1.524 1.524h8.403Zm-7.113-3.05a.413.413 0 0 1-.292-.704l2.583-2.582a.415.415 0 0 1 .584 0l1.508 1.509a10.883 10.883 0 0 1 3.158-2.775.415.415 0 0 1 .564.15.414.414 0 0 1-.15.564 10.025 10.025 0 0 0-3.185 2.929.415.415 0 0 1-.631.056L9.707 6.85 7.416 9.141a.415.415 0 0 1-.292.12Z"/></svg>