<svg fill="white" xmlns="http://www.w3.org/2000/svg" width="22" height="17.7" viewBox="0 0 22 17.7"><path d="M11.459 16.828h-.92a1.356 1.356 0 0 1-1.34-1.134l-.124-.753c-.033-.196-.19-.377-.409-.468a.625.625 0 0 0-.612.045l-.622.443a1.35 1.35 0 0 1-1.749-.145l-.65-.651a1.355 1.355 0 0 1-.145-1.751l.442-.619c.119-.165.136-.396.045-.614-.09-.218-.269-.374-.467-.406l-.753-.126a1.353 1.353 0 0 1-1.134-1.34V8.39c0-.667.477-1.23 1.134-1.341l.753-.125c.198-.032.377-.188.468-.407s.073-.447-.045-.613l-.443-.621a1.357 1.357 0 0 1 .146-1.751l.649-.649a1.352 1.352 0 0 1 1.751-.144l.619.441c.167.12.396.136.613.045.22-.091.376-.27.408-.468l.126-.751A1.353 1.353 0 0 1 10.54.871h.919c.667 0 1.23.477 1.341 1.134l.125.753c.032.197.188.376.408.469.218.091.448.073.613-.047l.619-.442a1.352 1.352 0 0 1 1.751.146l.65.649c.473.472.533 1.208.144 1.751l-.442.62c-.119.165-.136.395-.045.613s.271.375.468.407l.753.126a1.353 1.353 0 0 1 1.134 1.34v.919c0 .667-.477 1.23-1.134 1.341l-.753.125c-.198.032-.377.188-.468.407s-.074.448.045.613l.443.62a1.354 1.354 0 0 1-.145 1.751l-.651.65a1.353 1.353 0 0 1-1.75.145l-.619-.442a.626.626 0 0 0-.613-.045c-.22.091-.376.27-.408.468l-.125.751a1.355 1.355 0 0 1-1.341 1.135Zm-3.072-3.237c.198 0 .401.04.597.121.485.203.824.611.905 1.093l.125.754a.53.53 0 0 0 .525.445h.92a.532.532 0 0 0 .526-.446l.125-.751c.081-.483.419-.892.905-1.094.481-.202 1.011-.152 1.41.136l.619.441a.533.533 0 0 0 .688-.057l.651-.649a.533.533 0 0 0 .057-.688l-.444-.62c-.285-.399-.336-.927-.135-1.41.202-.487.611-.825 1.095-.905l.752-.125a.532.532 0 0 0 .445-.526v-.919a.53.53 0 0 0-.445-.525l-.752-.126c-.482-.079-.893-.418-1.095-.905-.201-.483-.15-1.011.135-1.41l.443-.62a.53.53 0 0 0-.056-.687l-.651-.65a.528.528 0 0 0-.687-.057l-.619.442c-.399.285-.925.337-1.412.136-.487-.205-.825-.614-.904-1.095l-.125-.752a.532.532 0 0 0-.526-.445h-.919a.53.53 0 0 0-.525.445s-.126.753-.126.753c-.081.482-.419.892-.905 1.093-.481.201-1.012.151-1.41-.136l-.619-.441a.53.53 0 0 0-.688.057l-.649.649a.532.532 0 0 0-.058.688l.442.62c.286.398.337.925.136 1.409-.202.487-.611.825-1.095.905l-.752.125a.532.532 0 0 0-.445.526v.919a.53.53 0 0 0 .445.525l.753.126c.482.08.892.418 1.094.905.2.484.148 1.011-.136 1.41l-.442.619a.53.53 0 0 0 .057.688l.649.651a.53.53 0 0 0 .686.057l.623-.443c.237-.17.521-.257.812-.257ZM9.608 2.074h.01-.01Z"/><path d="M11 11.784c-1.618 0-2.934-1.316-2.934-2.935S9.381 5.915 11 5.915s2.935 1.315 2.935 2.934-1.316 2.935-2.935 2.935Zm0-5.044c-1.163 0-2.109.946-2.109 2.109s.946 2.11 2.109 2.11 2.11-.947 2.11-2.11S12.163 6.74 11 6.74Z"/></svg>