<svg stroke="currentColor" fill="none" xmlns="http://www.w3.org/2000/svg" width="24" height="24" viewBox="0 0 24 24"><path fill="none" stroke="#000" stroke-linecap="round" stroke-linejoin="round" stroke-width="1.5" d="M12 4.476c1.801 0 3.566.152 5.283.443a.723.723 0 0 1 .599.716v.682c0 .39-.155.764-.431 1.04L13.9 10.908a1.47 1.47 0 0 0-.431 1.04v5.195c0 .557-.315 1.067-.813 1.316l-2.128 1.064v-7.575c0-.39-.155-.764-.431-1.04L6.546 7.357a1.47 1.47 0 0 1-.431-1.04v-.682c0-.353.251-.658.599-.716a31.498 31.498 0 0 1 5.283-.443Z"/></svg>