<svg stroke="currentColor" fill="none" xmlns="http://www.w3.org/2000/svg" width="24" height="24" viewBox="0 0 24 24"><path fill="none" stroke="#000" stroke-linecap="round" stroke-linejoin="round" stroke-width="1.5" d="M5.103 4.476v9.405a1.88 1.88 0 0 0 1.881 1.881h1.881M5.103 4.476h13.793m.001 0h0v9.405a1.88 1.88 0 0 1-1.881 1.881h-1.881m-6.27 0h6.27m-6.27 0-.836 2.508m7.106-2.508.836 2.508m0 0 .418 1.254m-.418-1.254H8.029m0 0-.418 1.254M8.238 12l2.508-2.508 1.796 1.796a10.093 10.093 0 0 1 3.22-2.962"/></svg>