<svg fill="currentColor" xmlns="http://www.w3.org/2000/svg" width="22" height="17.7" viewBox="0 0 22 17.7"><path d="M2.945 13.246a3.86 3.86 0 0 1 1.172-2.464c.746-.722 1.735-1.084 2.77-1.095.636.01 1.224.184 1.749.46a7.25 7.25 0 0 1 .679-.564 4.708 4.708 0 0 0-2.414-.72h-.08c-1.229 0-2.392.47-3.277 1.327a4.69 4.69 0 0 0-1.436 3.312.412.412 0 0 0 .24.382c1.302.598 2.689.909 4.124.955.018-.276.05-.549.098-.818a9.795 9.795 0 0 1-3.624-.775Zm3.878-5.275c1.414 0 2.564-1.15 2.564-2.564s-1.15-2.564-2.564-2.564-2.564 1.15-2.564 2.564 1.15 2.564 2.564 2.564Zm0-4.305c.959 0 1.74.781 1.74 1.74s-.781 1.74-1.74 1.74-1.74-.781-1.74-1.74.781-1.74 1.74-1.74Z"/><path d="M13.625 16.902h-.021a14.39 14.39 0 0 1-6.047-1.316.411.411 0 0 1-.24-.382 6.298 6.298 0 0 1 6.287-6.186h.104a6.263 6.263 0 0 1 6.186 6.185.414.414 0 0 1-.24.382 14.354 14.354 0 0 1-6.027 1.316Zm-5.472-1.954c1.722.75 3.555 1.13 5.452 1.13h.021c1.884 0 3.709-.38 5.433-1.13a5.44 5.44 0 0 0-5.364-5.104h-.09a5.47 5.47 0 0 0-5.451 5.104Zm5.452-7.449c-1.848 0-3.351-1.503-3.351-3.351S11.757.797 13.605.797s3.351 1.503 3.351 3.351-1.503 3.351-3.351 3.351Zm0-5.877c-1.393 0-2.526 1.134-2.526 2.526s1.134 2.526 2.526 2.526 2.526-1.134 2.526-2.526-1.134-2.526-2.526-2.526Z"/></svg>