<svg fill="currentColor" xmlns="http://www.w3.org/2000/svg" width="22" height="17.7" viewBox="0 0 22 17.7"><path d="M15.189 17.04H6.812a2.21 2.21 0 0 1-2.208-2.207V4.268c0-1.102.811-2.027 1.886-2.153.429-.049.858-.092 1.288-.127A2.215 2.215 0 0 1 9.803.66h2.396c.883 0 1.677.533 2.023 1.328.431.036.859.078 1.286.127 1.076.126 1.887 1.052 1.887 2.153v10.565a2.21 2.21 0 0 1-2.207 2.207ZM7.596 2.831c-.338.03-.675.064-1.012.104-.658.076-1.156.649-1.156 1.333v10.565c0 .763.621 1.383 1.384 1.383h8.377c.763 0 1.383-.62 1.383-1.383V4.268c0-.683-.498-1.256-1.157-1.333a41.66 41.66 0 0 0-1.011-.104v.035c0 .558-.453 1.011-1.011 1.011H8.607a1.011 1.011 0 0 1-1.011-1.011v-.035Zm.875-.334a1.415 1.415 0 0 0-.051.369c0 .103.084.187.187.187h4.786a.187.187 0 0 0 .187-.187c0-.126-.017-.25-.05-.369 0-.005-.003-.01-.004-.015a1.387 1.387 0 0 0-1.327-.999H9.803c-.614 0-1.159.41-1.328.998 0 .005-.003.01-.004.016Z"/><path d="M10.402 12.519a.416.416 0 0 1-.292-.12l-1.795-1.795a.413.413 0 0 1 .584-.584l1.45 1.451 2.708-3.792a.412.412 0 1 1 .672.478l-2.991 4.188a.409.409 0 0 1-.302.172h-.034Z"/></svg>