<svg fill="currentColor" xmlns="http://www.w3.org/2000/svg" width="15.998" height="15.996" viewBox="0 0 15.998 15.996"><path d="M10.46 15.795H7.999a.413.413 0 1 1 0-.824h2.461c2.488 0 4.511-2.024 4.511-4.512s-2.023-4.511-4.511-4.511H1.61l4.219 4.219a.413.413 0 0 1-.583.584L.323 5.828l-.004-.004H.318a.415.415 0 0 1-.085-.131.435.435 0 0 1-.03-.144H.202v-.025a.407.407 0 0 1 .121-.281L5.246.321a.413.413 0 0 1 .583.584l-4.22 4.219h8.851c2.942 0 5.336 2.393 5.336 5.335s-2.394 5.336-5.336 5.336Z"/></svg>